<?xml version="1.0" standalone="no"?>
<!DOCTYPE svg PUBLIC "-//W3C//DTD SVG 20010904//EN"
 "http://www.w3.org/TR/2001/REC-SVG-20010904/DTD/svg10.dtd">
<svg version="1.0" xmlns="http://www.w3.org/2000/svg"
 width="303.000000pt" height="166.000000pt" viewBox="0 0 303.000000 166.000000"
 preserveAspectRatio="xMidYMid meet">

<g transform="translate(0.000000,166.000000) scale(0.100000,-0.100000)"
fill="#000000" stroke="none">
<path d="M0 830 l0 -830 1515 0 1515 0 0 830 0 830 -1515 0 -1515 0 0 -830z
m828 398 c18 -18 14 -45 -9 -61 -39 -28 -79 5 -64 53 7 23 53 28 73 8z m-78
-58 c0 -5 -9 -14 -20 -20 -11 -6 -25 -20 -31 -33 -11 -20 -11 -21 5 -8 9 8 34
17 57 21 33 6 41 4 49 -10 6 -12 17 -16 29 -13 28 7 45 -28 26 -53 -11 -15
-18 -17 -32 -8 -10 6 -20 19 -23 30 -7 27 -46 28 -86 3 -19 -11 -41 -18 -49
-15 -38 14 6 116 50 116 14 0 25 -4 25 -10z m154 -23 c30 -41 28 -100 -7 -134
-20 -20 -30 -24 -38 -16 -9 9 -6 18 10 39 26 33 27 64 1 97 -11 14 -20 30 -20
37 0 20 32 6 54 -23z m224 4 c21 -13 10 -46 -16 -49 -24 -4 -38 18 -28 43 6
17 24 19 44 6z m330 -118 l-3 -128 -57 -2 c-49 -3 -59 0 -72 19 -9 13 -16 43
-16 71 0 60 35 103 76 93 22 -6 24 -3 24 28 0 33 7 39 43 45 4 0 6 -56 5 -126z
m174 5 c2 -68 2 -125 1 -127 -4 -7 -88 -11 -110 -6 -15 4 -26 18 -34 45 -23
77 22 154 81 135 14 -4 16 0 12 26 -3 20 0 34 9 40 33 21 37 10 41 -113z m268
77 c0 -43 1 -45 20 -35 21 11 57 -1 72 -24 16 -24 8 -103 -12 -129 -18 -23
-28 -26 -75 -26 l-55 1 0 123 c0 128 0 127 43 134 4 0 7 -19 7 -44z m-1265
-17 c-1 -40 22 -96 50 -123 29 -29 81 -59 101 -57 12 1 25 -5 28 -15 5 -12 4
-13 -7 -5 -10 9 -17 8 -25 0 -9 -9 -12 -9 -12 -1 0 8 -12 10 -35 6 -23 -4 -35
-2 -35 6 0 6 -6 11 -13 11 -14 0 -54 42 -73 76 -15 27 -19 128 -5 119 6 -3 11
1 11 9 0 9 4 16 8 16 4 0 7 -19 7 -42z m335 26 c0 -8 5 -12 11 -9 14 9 10 -92
-5 -119 -19 -34 -59 -76 -73 -76 -7 0 -13 -4 -13 -10 0 -11 -53 -14 -63 -4 -7
7 30 44 43 44 12 0 65 54 69 70 10 37 18 106 14 113 -2 4 1 7 6 7 6 0 11 -7
11 -16z m328 -58 c3 -3 -1 -12 -8 -21 -9 -10 -17 -12 -30 -5 -24 13 -50 -12
-50 -48 0 -40 14 -54 46 -50 23 2 29 -1 29 -17 0 -16 -8 -21 -41 -23 -35 -3
-45 1 -63 24 -39 49 -21 134 32 153 20 8 72 -1 85 -13z m482 5 c0 -14 -16 -29
-35 -32 -17 -4 -20 -13 -23 -72 -3 -64 -4 -67 -27 -67 -24 0 -25 2 -26 75 -1
41 -2 81 -3 88 -1 6 9 13 22 15 12 2 22 -2 22 -8 0 -7 8 -6 21 4 20 13 49 12
49 -3z m-649 -13 c0 -13 2 -36 4 -53 2 -16 1 -47 -2 -68 -4 -32 -8 -38 -26
-35 -20 3 -22 10 -25 71 -2 51 -6 67 -17 67 -8 0 -15 9 -15 20 0 17 7 20 40
20 35 0 40 -3 41 -22z m689 -114 c0 -3 -10 -23 -22 -44 -26 -45 -65 -57 -52
-17 18 59 24 67 49 67 14 0 25 -2 25 -6z m-670 -146 c0 -9 3 -8 10 2 8 12 11
13 19 1 5 -8 11 -9 15 -3 10 17 66 11 67 -7 1 -13 2 -13 6 2 2 9 9 17 14 17 5
0 9 -8 9 -17 0 -15 2 -15 9 -4 16 25 41 22 41 -5 0 -13 5 -24 10 -24 6 0 10
11 10 25 0 22 4 25 39 25 22 0 43 -5 46 -10 4 -7 11 -7 18 -2 7 5 29 10 49 10
35 1 37 0 28 -23 -6 -16 -5 -25 3 -29 7 -2 2 -5 -10 -5 -17 -1 -23 5 -23 19 0
13 -7 20 -20 20 -11 0 -20 -7 -20 -15 0 -8 5 -15 11 -15 5 0 7 5 4 10 -3 6 -1
10 4 10 6 0 11 -7 11 -15 0 -8 -9 -15 -20 -15 -11 0 -20 5 -20 12 0 9 -3 9
-12 0 -7 -7 -38 -12 -70 -12 -48 0 -58 3 -59 18 -1 14 -2 14 -6 1 -2 -10 -15
-16 -33 -16 -24 0 -30 5 -31 21 0 20 -1 20 -9 -1 -10 -24 -50 -32 -50 -10 0 8
-4 7 -10 -3 -9 -13 -12 -12 -25 4 -13 17 -15 17 -15 4 0 -12 -9 -16 -30 -16
-24 1 -30 5 -30 23 0 28 3 30 40 33 19 1 30 -2 30 -10z m460 2 c0 -5 -5 -10
-12 -10 -6 0 -8 -3 -5 -7 4 -3 16 2 27 12 16 14 22 15 35 5 11 -9 15 -9 15 -1
0 7 10 11 23 9 16 -2 22 -10 22 -30 1 -16 -3 -28 -7 -28 -4 0 -8 6 -8 13 0 8
-3 8 -8 2 -10 -16 -62 -17 -80 -3 -12 10 -16 10 -19 1 -3 -7 -9 -13 -14 -13
-10 0 -12 43 -2 53 10 11 33 8 33 -3z m-480 -110 c0 -5 -7 -7 -15 -4 -11 5
-15 0 -14 -17 0 -13 3 -18 6 -11 7 17 23 15 23 -3 0 -8 -9 -15 -20 -15 -23 0
-35 22 -26 45 6 16 46 21 46 5z m30 -40 c5 0 10 10 12 22 3 26 36 37 49 16 6
-10 9 -10 9 0 0 6 9 12 20 12 11 0 20 -7 20 -15 0 -20 10 -19 26 2 14 21 20
17 29 -17 6 -24 4 -25 -42 -27 -28 -1 -51 3 -55 10 -6 9 -8 9 -8 0 0 -7 -16
-12 -40 -11 -38 0 -40 2 -39 32 2 30 2 30 6 4 2 -16 8 -28 13 -28z m201 5 c5
4 9 1 9 -4 0 -6 -7 -11 -15 -11 -11 0 -15 10 -14 33 2 30 2 30 6 4 2 -15 9
-25 14 -22z m60 -5 c5 0 9 11 9 25 0 14 5 25 10 25 6 0 10 -13 10 -30 0 -27
-3 -30 -30 -30 -25 0 -30 4 -30 23 0 34 14 44 18 13 2 -14 8 -26 13 -26z m60
43 c-11 -4 -11 -7 -1 -13 10 -6 10 -12 -3 -25 -16 -15 -17 -14 -17 14 0 23 4
31 18 30 12 0 13 -2 3 -6z m39 -3 c-8 -5 -10 -10 -5 -10 6 0 11 -9 11 -20 0
-11 -6 -20 -13 -20 -8 0 -13 12 -13 30 0 22 5 30 18 30 14 0 15 -2 2 -10z m50
-5 c0 -8 5 -15 10 -15 6 0 10 7 10 15 0 21 17 19 30 -4 16 -32 12 -36 -35 -38
-25 -1 -45 3 -45 8 0 6 6 7 13 3 10 -6 10 -4 0 7 -18 18 -16 39 2 39 8 0 15
-7 15 -15z m80 -2 c0 -15 2 -14 16 3 15 18 15 18 9 -11 -8 -36 -13 -42 -24
-29 -15 16 -23 54 -12 54 6 0 11 -8 11 -17z m47 -30 c-3 -10 -5 -2 -5 17 0 19
2 27 5 18 2 -10 2 -26 0 -35z m63 15 c0 -16 -4 -28 -10 -28 -5 0 -10 5 -10 11
0 8 -5 8 -15 -1 -13 -11 -15 -8 -15 18 0 26 4 30 25 28 20 -1 25 -6 25 -28z
m55 22 c3 -5 0 -7 -8 -4 -20 7 -32 -15 -18 -29 9 -9 11 -8 5 6 -5 13 -2 16 10
11 20 -8 16 -28 -7 -32 -19 -4 -32 20 -23 43 6 17 32 20 41 5z m145 -16 c0
-13 5 -24 10 -24 6 0 10 12 10 26 0 30 20 22 21 -9 1 -20 2 -20 8 3 5 19 14
26 40 28 18 2 39 -2 47 -9 10 -8 14 -8 14 0 0 6 9 11 20 11 11 0 20 -6 20 -12
0 -9 4 -8 10 2 9 13 12 13 24 -3 14 -18 14 -18 19 0 3 10 5 4 6 -14 0 -18 -3
-33 -9 -33 -5 0 -10 6 -10 13 0 8 -4 7 -10 -3 -9 -13 -11 -13 -20 0 -6 10 -10
11 -10 3 0 -8 -13 -12 -35 -11 -30 1 -35 5 -35 27 0 28 -15 19 -23 -14 -4 -15
-5 -13 -6 8 -1 33 -18 36 -23 5 -2 -19 -10 -23 -43 -25 -22 -1 -43 3 -47 10
-5 9 -8 9 -8 0 0 -7 -17 -11 -45 -11 -25 1 -45 5 -45 10 0 5 6 6 13 2 8 -6 8
-3 -1 9 -21 25 -8 33 52 34 52 0 56 -1 56 -23z m282 19 c-10 -4 -9 -8 4 -17 9
-7 14 -18 10 -24 -9 -15 -36 -16 -36 -1 0 5 6 7 13 3 10 -6 10 -4 0 7 -18 19
-16 39 5 38 11 0 12 -2 4 -6z"/>
<path d="M1371 1041 c-8 -5 -11 -25 -9 -52 2 -37 7 -45 26 -47 20 -3 22 0 22
46 0 50 -13 68 -39 53z"/>
<path d="M1546 1034 c-28 -28 -18 -94 15 -94 16 0 19 8 19 49 0 55 -10 69 -34
45z"/>
<path d="M1913 1043 c-8 -3 -13 -24 -13 -55 0 -46 2 -49 23 -46 19 3 22 10 25
49 3 47 -7 62 -35 52z"/>
<path d="M1114 789 c-3 -6 -1 -16 5 -22 8 -8 11 -5 11 11 0 24 -5 28 -16 11z"/>
<path d="M1387 780 c-3 -11 -1 -20 4 -20 5 0 9 9 9 20 0 11 -2 20 -4 20 -2 0
-6 -9 -9 -20z"/>
<path d="M1200 775 c0 -8 5 -15 10 -15 6 0 10 7 10 15 0 8 -4 15 -10 15 -5 0
-10 -7 -10 -15z"/>
<path d="M1420 774 c0 -8 5 -12 10 -9 6 3 10 10 10 16 0 5 -4 9 -10 9 -5 0
-10 -7 -10 -16z"/>
<path d="M1630 775 c0 -8 5 -15 10 -15 6 0 10 7 10 15 0 8 -4 15 -10 15 -5 0
-10 -7 -10 -15z"/>
<path d="M1196 681 c-4 -7 -5 -15 -2 -18 9 -9 19 4 14 18 -4 11 -6 11 -12 0z"/>
<path d="M1900 676 c0 -9 5 -16 10 -16 6 0 10 4 10 9 0 6 -4 13 -10 16 -5 3
-10 -1 -10 -9z"/>
<path d="M2120 669 c0 -11 5 -17 10 -14 6 3 10 13 10 21 0 8 -4 14 -10 14 -5
0 -10 -9 -10 -21z"/>
</g>
</svg>
