<?xml version="1.0" standalone="no"?>
<!DOCTYPE svg PUBLIC "-//W3C//DTD SVG 20010904//EN"
 "http://www.w3.org/TR/2001/REC-SVG-20010904/DTD/svg10.dtd">
<svg version="1.0" xmlns="http://www.w3.org/2000/svg"
 width="320.000000pt" height="180.000000pt" viewBox="0 0 320.000000 180.000000"
 preserveAspectRatio="xMidYMid meet">

<g transform="translate(0.000000,180.000000) scale(0.100000,-0.100000)"
fill="#000000" stroke="none">
<path d="M620 1601 c-230 -63 -407 -251 -454 -483 -20 -97 -20 -159 0 -256 48
-236 239 -433 471 -488 93 -22 255 -15 341 15 246 84 413 302 429 558 20 313
-173 579 -478 658 -77 20 -227 18 -309 -4z m275 -6 c332 -59 560 -396 491
-725 -44 -210 -206 -396 -402 -462 -139 -47 -274 -46 -411 2 -169 59 -316 208
-375 378 -31 90 -33 306 -4 392 62 184 219 339 405 399 75 25 87 26 72 8 -8
-11 -5 -13 17 -10 15 3 36 -3 47 -11 19 -15 17 -15 -25 -12 -25 2 -35 2 -22
-1 12 -2 22 -8 22 -13 0 -5 7 -7 16 -3 19 7 34 -13 34 -47 0 -14 5 -32 10 -40
7 -11 10 1 8 40 -3 61 -30 99 -71 101 -21 0 -21 1 -2 9 30 13 100 11 190 -5z"/>
<path d="M663 1533 c9 -2 23 -2 30 0 6 3 -1 5 -18 5 -16 0 -22 -2 -12 -5z"/>
<path d="M530 1490 c-47 -22 -81 -40 -76 -40 6 0 -8 -13 -31 -30 -22 -16 -53
-46 -67 -65 -15 -19 -34 -35 -43 -35 -14 0 -14 -2 2 -14 18 -13 18 -14 -4 -25
-24 -13 -26 -51 -3 -59 9 -3 11 3 6 22 -4 17 -2 26 6 26 7 0 10 -6 7 -13 -2
-6 2 -18 11 -26 13 -13 14 -11 10 17 -5 35 6 41 38 18 19 -14 19 -15 -4 -45
-12 -17 -18 -31 -13 -31 5 0 20 15 34 33 l25 33 -44 27 c-49 30 -52 37 -25 61
14 13 21 14 26 6 4 -7 2 -15 -4 -19 -7 -5 -2 -12 14 -21 33 -18 61 -2 57 31
-2 19 0 21 10 11 19 -19 33 -14 15 6 -10 10 -17 24 -17 30 0 7 -7 12 -15 12
-8 0 -15 -4 -15 -10 0 -5 -8 -10 -17 -10 -14 0 -12 4 7 25 31 33 54 32 80 -5
12 -16 26 -30 32 -30 5 0 -5 18 -22 40 -18 23 -31 42 -29 44 9 8 96 49 128 61
20 8 29 14 21 14 -8 1 -53 -17 -100 -39z m-80 -120 c0 -5 -6 -10 -14 -10 -8 0
-16 -5 -18 -12 -4 -12 -28 -3 -28 12 0 7 10 11 53 19 4 0 7 -3 7 -9z m-20 -50
c-7 -5 -19 -6 -27 -3 -10 4 -8 9 9 17 24 13 40 0 18 -14z"/>
<path d="M943 1518 c28 -10 28 -28 -1 -28 -26 0 -49 -18 -36 -27 6 -5 18 -20
25 -36 l15 -28 18 51 c10 27 22 50 27 50 19 0 21 -31 5 -70 -9 -22 -12 -40 -7
-40 5 0 16 19 24 43 8 24 20 41 27 39 11 -3 11 0 1 12 -7 9 -16 15 -19 14 -4
-1 -24 6 -46 15 -21 9 -44 17 -50 16 -6 0 1 -5 17 -11z m10 -58 c-4 -16 -8
-18 -19 -9 -16 13 -10 29 11 29 8 0 11 -7 8 -20z"/>
<path d="M660 1503 c0 -13 3 -13 15 -3 17 14 21 0 4 -17 -12 -12 -4 -33 12
-33 5 0 9 7 7 16 -2 10 3 19 10 21 7 3 12 -5 12 -20 0 -32 -39 -45 -58 -19
-13 16 -14 16 -10 -3 2 -16 12 -21 47 -23 l43 -3 -6 33 c-4 18 -8 40 -9 49 -2
21 -67 23 -67 2z"/>
<path d="M561 1477 c-12 -15 -5 -27 17 -27 8 0 12 6 9 14 -3 8 -1 17 6 20 7 2
5 5 -4 5 -9 1 -22 -5 -28 -12z"/>
<path d="M608 1458 c-4 -27 -41 -36 -64 -17 -8 6 -17 10 -20 7 -11 -12 49 -39
72 -34 19 5 24 13 24 36 0 35 -7 40 -12 8z"/>
<path d="M1053 1444 c-8 -21 13 -42 28 -27 13 13 5 43 -11 43 -6 0 -13 -7 -17
-16z m27 -9 c0 -8 -4 -15 -10 -15 -5 0 -10 7 -10 15 0 8 5 15 10 15 6 0 10 -7
10 -15z"/>
<path d="M1124 1422 c3 -5 -4 -13 -17 -17 -17 -5 -18 -8 -7 -12 17 -6 50 -39
50 -48 0 -4 -10 -15 -22 -25 -13 -10 -20 -22 -15 -26 4 -4 22 7 40 24 18 18
36 32 40 32 18 0 4 -37 -25 -67 -18 -18 -27 -33 -22 -33 6 0 23 14 39 30 33
35 41 36 54 13 7 -15 5 -18 -15 -19 -14 -1 -31 -7 -39 -14 -20 -16 -20 -60 0
-60 18 0 20 17 3 22 -6 2 -9 12 -5 21 9 23 59 22 81 -2 17 -19 17 -20 -13 -36
-36 -18 -39 -31 -10 -40 20 -7 20 -8 -7 -26 -35 -23 -29 -24 22 -3 36 15 37
17 19 30 -10 8 -24 14 -29 14 -14 0 16 20 30 20 14 0 34 -44 34 -76 0 -20 -4
-24 -19 -19 -15 4 -18 0 -18 -20 0 -23 3 -26 23 -21 18 5 22 3 18 -9 -4 -8
-16 -15 -28 -16 -11 0 -30 -5 -41 -10 -14 -7 -5 -8 32 -5 34 3 53 1 56 -7 2
-6 6 -2 9 10 4 14 2 20 -6 17 -8 -3 -12 14 -14 53 -2 46 -12 78 -48 151 -25
50 -49 90 -53 88 -4 -3 -17 11 -30 29 -20 30 -83 83 -67 57z m48 -47 c4 -5 4
-13 1 -18 -5 -9 -43 30 -43 46 0 9 29 -9 42 -28z"/>
<path d="M1035 1389 c10 -35 23 -45 18 -15 -3 15 -10 29 -15 32 -6 4 -7 -2 -3
-17z"/>
<path d="M717 1389 c-123 -20 -242 -110 -300 -228 -30 -61 -32 -72 -32 -171 0
-97 2 -110 31 -170 123 -252 451 -312 647 -117 180 178 150 490 -61 626 -86
55 -188 77 -285 60z m-102 -110 c4 -6 13 -8 19 -6 7 3 18 -4 24 -14 14 -21 52
-26 52 -6 0 8 4 7 10 -3 5 -8 10 -31 10 -51 0 -45 10 -49 135 -49 84 0 139
-14 108 -27 -7 -2 -13 -13 -13 -22 0 -23 -26 -51 -65 -72 -24 -12 -30 -21 -29
-46 1 -17 11 -42 23 -54 20 -21 21 -21 27 -3 23 72 50 84 59 27 4 -21 10 -51
15 -68 5 -16 10 -58 13 -92 5 -59 4 -62 -14 -52 -19 10 -24 3 -20 -28 3 -22
-7 -14 -23 19 -9 17 -16 44 -16 60 0 16 -7 43 -17 61 -15 29 -17 30 -24 12 -7
-19 -8 -19 -8 3 -1 16 -7 22 -23 21 -13 0 -17 -3 -10 -6 6 -2 12 -17 11 -31 0
-25 -1 -26 -9 -6 -12 31 -28 38 -23 10 3 -13 0 -27 -6 -30 -6 -4 -11 -2 -11 5
0 6 -11 0 -25 -15 -20 -22 -29 -25 -39 -17 -10 9 -15 8 -20 -4 -5 -15 -63 -18
-72 -4 -2 4 -8 36 -13 73 -5 36 -17 80 -25 98 -11 21 -13 35 -6 42 19 19 10
45 -20 61 -16 9 -30 22 -30 30 0 22 37 55 60 55 30 0 24 14 -17 46 -21 15 -40
29 -41 30 -6 4 32 64 40 64 4 0 10 -5 13 -11z"/>
<path d="M808 893 c7 -3 16 -2 19 1 4 3 -2 6 -13 5 -11 0 -14 -3 -6 -6z"/>
<path d="M1082 1368 c5 -15 28 -23 28 -10 0 5 -7 13 -16 16 -10 4 -14 1 -12
-6z"/>
<path d="M259 1190 c23 -10 23 -11 6 -24 -19 -14 -15 -46 6 -46 9 0 9 3 0 14
-19 23 12 39 61 32 l43 -6 -30 14 c-17 8 -48 17 -70 20 -34 5 -36 5 -16 -4z"/>
<path d="M296 1153 c-9 -9 -7 -33 3 -33 12 0 22 28 12 34 -5 3 -11 3 -15 -1z"/>
<path d="M222 1094 c-11 -12 -9 -14 9 -14 18 0 19 -3 9 -14 -17 -21 -9 -60 14
-64 12 -3 17 1 13 10 -2 7 -10 12 -16 10 -8 -1 -11 6 -9 20 3 20 10 23 51 26
59 4 52 22 -8 22 -24 0 -45 4 -47 9 -1 5 -9 3 -16 -5z"/>
<path d="M270 1043 c8 -3 18 -11 22 -17 9 -14 22 -1 13 13 -3 6 -16 11 -28 10
-15 0 -17 -2 -7 -6z"/>
<path d="M1260 851 c-19 -8 -23 -41 -5 -41 7 0 16 -6 18 -12 3 -8 6 -6 6 5 1
9 7 17 14 17 8 0 9 3 1 8 -6 4 -13 12 -15 18 -2 6 -11 9 -19 5z"/>
<path d="M277 836 c-8 -20 8 -37 26 -30 9 3 17 14 17 23 0 20 -36 26 -43 7z"/>
<path d="M347 690 c-5 -20 14 -33 37 -24 19 7 9 40 -14 41 -10 1 -20 -7 -23
-17z"/>
<path d="M1167 689 c-3 -12 0 -19 8 -19 7 0 16 -6 18 -12 4 -10 6 -10 6 0 1 6
9 12 19 13 10 0 12 3 5 6 -7 2 -13 10 -13 17 0 20 -38 16 -43 -5z"/>
<path d="M580 557 c0 -7 6 -19 12 -25 10 -10 10 -15 -2 -22 -8 -5 -18 -6 -22
-4 -4 3 -8 0 -8 -7 0 -8 11 -9 36 -4 l36 6 -7 -33 c-9 -43 8 -26 25 25 12 38
25 43 64 28 17 -6 15 -9 -12 -20 -18 -8 -32 -16 -32 -18 0 -3 13 -17 29 -33
34 -30 41 -24 41 36 0 33 1 34 38 34 l37 -1 -27 -24 c-32 -27 -36 -45 -11 -45
9 0 25 -8 36 -17 18 -17 19 -17 16 22 -4 39 -2 42 24 32 9 -4 8 -8 -3 -16 -8
-5 -11 -13 -7 -18 9 -9 28 17 24 32 -2 6 -14 16 -28 22 -24 13 -24 13 8 13 30
0 33 -3 39 -40 4 -22 11 -43 15 -46 11 -6 11 10 0 58 -8 35 -7 37 22 47 39 14
42 10 16 -23 -12 -15 -20 -28 -18 -29 14 -8 73 -26 76 -23 2 2 -3 21 -12 42
-8 21 -13 44 -11 51 7 16 6 16 -39 -3 -21 -8 -44 -13 -52 -10 -9 4 -11 2 -7
-5 11 -18 -203 -5 -248 15 -45 19 -48 20 -48 3z m44 -13 c9 -3 16 -13 16 -20
0 -12 -4 -12 -20 -4 -11 6 -20 15 -20 20 0 12 3 12 24 4z m349 -44 c6 -22 5
-23 -17 -14 -8 3 -12 12 -9 20 7 20 20 17 26 -6z m-250 -30 c-4 -16 -8 -18
-19 -9 -16 13 -10 29 11 29 8 0 11 -7 8 -20z m87 0 c0 -13 -5 -18 -15 -14 -12
5 -13 10 -4 20 15 19 19 18 19 -6z"/>
<path d="M940 450 c0 -5 5 -10 10 -10 6 0 10 5 10 10 0 6 -4 10 -10 10 -5 0
-10 -4 -10 -10z"/>
<path d="M675 430 c3 -5 8 -10 11 -10 2 0 4 5 4 10 0 6 -5 10 -11 10 -5 0 -7
-4 -4 -10z"/>
<path d="M1784 1265 c-23 -18 -35 -39 -44 -75 -13 -54 -9 -70 13 -52 23 20 69
111 65 132 -3 19 -4 19 -34 -5z"/>
<path d="M2890 1271 c0 -26 42 -112 64 -131 26 -20 30 -5 15 51 -10 37 -23 59
-46 77 -33 24 -33 24 -33 3z"/>
<path d="M2270 1266 c-46 -10 -120 -40 -120 -49 0 -1 18 -2 39 -2 31 0 41 -4
45 -18 3 -14 12 -18 38 -15 l33 3 -2 -47 c-2 -39 1 -48 17 -53 25 -8 26 -44 3
-51 -10 -3 -27 -10 -38 -15 -16 -7 -13 -8 15 -6 31 2 35 -1 37 -24 1 -19 -7
-32 -28 -48 -36 -26 -37 -45 -4 -67 28 -19 35 -68 10 -78 -10 -3 -14 -18 -13
-43 1 -37 1 -37 5 -5 2 17 9 32 15 32 14 0 48 40 48 56 0 7 -4 16 -10 19 -5 3
-10 25 -10 48 0 31 5 45 20 55 23 14 27 57 5 66 -8 3 -15 15 -15 26 0 19 4 20
97 14 105 -5 132 -16 108 -41 -8 -8 -15 -20 -15 -27 0 -17 -33 -46 -52 -46 -8
0 -25 -11 -37 -24 -20 -21 -22 -31 -16 -62 8 -45 32 -66 57 -53 10 5 18 18 18
28 0 17 27 49 34 40 1 -2 10 -46 20 -97 20 -109 15 -172 -15 -172 -13 0 -19
-7 -19 -21 0 -11 -4 -17 -10 -14 -5 3 -10 27 -10 53 0 26 -9 67 -20 91 -11 24
-20 49 -20 55 0 8 -12 11 -34 8 -27 -3 -37 1 -48 17 -15 24 -28 27 -28 7 0 -8
-6 -16 -12 -18 -10 -4 -10 -11 0 -33 12 -26 11 -31 -13 -54 -21 -21 -27 -23
-35 -12 -7 12 -11 12 -23 2 -10 -8 -17 -9 -22 -1 -9 15 -25 12 -25 -5 0 -17
-25 -20 -35 -5 -3 5 -6 42 -7 82 -1 40 -4 78 -8 83 -16 22 -21 74 -8 94 11 18
10 23 -8 39 -11 11 -30 23 -42 26 -30 10 -28 23 9 57 21 20 38 28 50 24 34
-11 21 20 -18 46 -28 18 -37 30 -35 47 5 32 -16 27 -52 -11 -55 -59 -85 -111
-102 -177 -45 -178 39 -361 204 -442 62 -31 74 -33 167 -33 113 0 164 17 243
82 242 198 153 588 -153 667 -69 19 -100 19 -175 2z m97 -278 c-3 -8 -6 -5 -6
6 -1 11 2 17 5 13 3 -3 4 -12 1 -19z m-37 -84 c0 -22 -2 -25 -15 -14 -12 10
-13 16 -4 26 16 20 19 18 19 -12z m85 -175 c0 -32 -4 -44 -15 -44 -10 0 -14 8
-12 25 2 14 3 35 4 48 1 43 23 16 23 -29z m49 -11 c-9 -14 -24 2 -24 25 1 21
1 21 15 3 8 -10 12 -23 9 -28z"/>
<path d="M1660 1144 c-18 -47 -4 -134 22 -134 28 0 138 93 126 106 -10 10 -85
-39 -102 -66 -15 -24 -15 -23 -16 48 0 74 -12 93 -30 46z"/>
<path d="M3022 1100 c2 -39 2 -70 0 -70 -2 0 -15 14 -29 30 -27 32 -81 65 -91
56 -12 -13 96 -106 123 -106 29 0 44 84 25 134 -19 50 -32 29 -28 -44z"/>
<path d="M1627 996 c-17 -44 -5 -98 31 -139 15 -16 18 -15 55 25 38 41 63 86
52 96 -8 9 -55 -40 -75 -77 l-17 -34 -7 44 c-4 24 -13 57 -20 74 -10 25 -13
27 -19 11z"/>
<path d="M3056 960 c-9 -30 -16 -63 -16 -74 0 -14 -8 -7 -28 25 -30 46 -59 75
-68 67 -9 -10 16 -58 52 -98 30 -33 39 -38 51 -28 37 30 56 113 34 147 -7 10
-14 0 -25 -39z"/>
<path d="M1738 810 c-15 -25 -30 -58 -34 -73 -6 -28 -7 -27 -29 20 -13 26 -30
57 -40 68 -16 19 -16 18 -11 -24 5 -46 27 -84 63 -108 20 -14 23 -11 53 50 17
36 30 75 28 88 -3 22 -6 19 -30 -21z"/>
<path d="M2940 822 c0 -11 14 -47 31 -81 30 -59 32 -61 52 -48 35 23 58 61 64
107 8 58 -10 46 -47 -31 -27 -57 -40 -66 -40 -26 0 22 -40 97 -52 97 -4 0 -8
-8 -8 -18z"/>
<path d="M1782 689 c-8 -12 -16 -46 -19 -75 l-6 -54 -21 28 c-34 45 -65 76
-71 70 -23 -22 54 -118 94 -118 23 0 44 67 39 128 -3 40 -4 41 -16 21z"/>
<path d="M2910 666 c0 -70 19 -126 42 -126 30 0 87 61 94 100 l6 35 -34 -35
c-19 -19 -41 -45 -50 -58 -15 -22 -15 -21 -21 33 -3 30 -13 65 -21 77 -16 22
-16 21 -16 -26z"/>
<path d="M2710 657 c-12 -20 -12 -21 3 -9 12 10 21 11 36 2 28 -15 27 -6 -2
13 -22 14 -24 14 -37 -6z"/>
<path d="M1942 640 c0 -14 2 -19 5 -12 2 6 2 18 0 25 -3 6 -5 1 -5 -13z"/>
<path d="M1960 650 c0 -5 5 -10 10 -10 6 0 10 5 10 10 0 6 -4 10 -10 10 -5 0
-10 -4 -10 -10z"/>
<path d="M1996 645 c4 -11 13 -24 21 -28 7 -4 13 -13 13 -18 0 -6 -5 -7 -12
-3 -7 5 -8 3 -4 -5 5 -7 14 -10 22 -7 7 3 17 0 21 -7 5 -7 17 -19 28 -27 11
-8 -2 10 -29 40 -27 30 -53 60 -58 65 -6 6 -6 2 -2 -10z"/>
<path d="M2727 622 c6 -15 5 -15 -11 -3 -15 13 -20 11 -44 -12 l-27 -27 30
-27 29 -28 -24 28 c-22 26 -23 28 -7 44 16 16 17 16 17 -5 0 -15 4 -20 16 -15
12 4 13 7 3 14 -8 4 -10 11 -6 15 3 4 15 1 24 -7 10 -7 15 -9 11 -5 -4 5 -3
15 2 21 8 9 6 14 -4 18 -11 4 -13 1 -9 -11z"/>
<path d="M1969 603 c-13 -16 -12 -17 4 -4 16 13 21 21 13 21 -2 0 -10 -8 -17
-17z"/>
<path d="M1845 547 c-7 -37 -4 -73 11 -112 6 -15 -1 -13 -29 12 -45 39 -97 68
-97 53 0 -5 18 -28 40 -50 43 -43 92 -54 104 -24 10 27 6 97 -8 129 l-13 30
-8 -38z"/>
<path d="M2840 545 c-6 -22 -10 -60 -8 -85 l3 -45 40 1 c33 1 45 8 72 40 18
20 33 41 33 46 0 13 -55 -18 -97 -55 -28 -24 -35 -27 -29 -12 14 34 18 99 8
125 -9 24 -10 24 -22 -15z"/>
<path d="M2015 560 c4 -6 11 -8 16 -5 5 4 9 1 9 -4 0 -14 -6 -14 -31 -1 -17
10 -18 9 -8 -14 11 -22 12 -23 30 -8 25 22 24 42 -2 42 -11 0 -17 -5 -14 -10z"/>
<path d="M2597 543 c-7 -7 36 -43 52 -43 13 0 15 37 2 45 -5 3 -12 1 -15 -4
-4 -5 0 -11 6 -14 7 -2 9 -8 5 -13 -5 -5 -16 1 -27 13 -9 12 -20 19 -23 16z"/>
<path d="M2062 520 c-7 -11 -8 -20 -3 -20 9 0 24 30 18 36 -1 2 -8 -6 -15 -16z"/>
<path d="M2161 498 c-1 -10 4 -18 9 -18 6 0 10 -4 10 -10 0 -14 -27 -12 -33 3
-4 9 -6 9 -6 -1 -1 -8 8 -16 19 -19 11 -3 20 -13 20 -22 1 -14 2 -14 11 1 7
12 6 24 -1 38 -7 13 -7 20 0 20 5 0 10 -5 10 -11 0 -5 5 -7 11 -3 8 5 6 10 -5
16 -9 5 -20 7 -25 3 -5 -3 -12 1 -14 7 -3 8 -6 6 -6 -4z"/>
<path d="M2237 503 c-11 -10 -8 -45 3 -38 5 3 6 13 3 22 -5 13 -2 15 15 11 12
-4 20 -2 16 3 -6 11 -28 12 -37 2z"/>
<path d="M2463 481 c-28 -9 -55 -20 -60 -24 -4 -4 1 -5 10 -1 12 4 17 2 15 -6
-2 -7 4 -15 12 -17 13 -4 13 -3 0 6 -11 8 -12 11 -2 11 7 0 10 5 7 10 -3 6 3
11 14 12 12 0 26 1 33 2 7 1 18 -10 25 -24 13 -26 16 -10 5 26 -7 20 -8 20
-59 5z"/>
<path d="M1940 437 c0 -18 9 -50 20 -72 11 -21 18 -40 17 -41 -2 -2 -25 8 -52
21 -26 14 -57 25 -68 25 -20 0 -20 0 -1 -21 28 -31 68 -49 110 -49 l37 0 -6
45 c-6 41 -41 125 -52 125 -3 0 -5 -15 -5 -33z"/>
<path d="M2297 463 c-4 -3 -7 -15 -7 -25 0 -11 -5 -16 -10 -13 -6 4 -8 11 -5
16 4 5 2 9 -4 9 -20 0 -18 -16 5 -33 l24 -18 0 32 c0 22 4 30 13 26 8 -3 20
-1 28 4 10 6 7 9 -12 9 -14 0 -29 -3 -32 -7z"/>
<path d="M2487 463 c-13 -12 -7 -23 11 -22 10 0 12 3 4 6 -6 2 -10 9 -6 14 6
10 0 12 -9 2z"/>
<path d="M2742 432 c-13 -24 -24 -63 -25 -85 -2 -39 0 -42 27 -45 36 -4 78 13
107 44 21 22 21 24 3 24 -10 0 -43 -11 -72 -25 -30 -14 -52 -21 -50 -17 26 50
39 90 36 116 l-3 31 -23 -43z"/>
<path d="M2350 440 c-8 -5 -18 -6 -22 -4 -4 3 -5 -2 -2 -11 5 -11 10 -13 19
-5 10 8 14 7 17 -7 3 -15 5 -14 10 4 7 26 -2 35 -22 23z"/>
<path d="M2455 420 c-4 -6 -16 -8 -28 -5 -18 5 -19 4 -5 -5 17 -11 48 -4 48
11 0 12 -7 11 -15 -1z"/>
<path d="M546 315 c-3 -9 -18 -15 -35 -15 -36 0 -44 -10 -23 -30 14 -13 15
-12 9 2 -4 12 -2 15 8 12 8 -3 16 -15 18 -27 3 -18 5 -17 6 6 2 38 19 34 24
-5 3 -26 4 -23 5 14 2 35 6 48 20 51 13 4 12 5 -4 6 -12 0 -24 -6 -28 -14z"/>
<path d="M195 300 c-3 -5 -1 -10 4 -10 6 0 11 5 11 10 0 6 -2 10 -4 10 -3 0
-8 -4 -11 -10z"/>
<path d="M592 290 c-14 -22 -6 -50 14 -50 9 0 14 11 14 29 0 37 -12 46 -28 21z"/>
<path d="M698 303 c-2 -5 -1 -24 3 -43 l6 -35 2 43 c1 39 -3 52 -11 35z"/>
<path d="M1003 270 c0 -25 2 -35 4 -22 2 12 2 32 0 45 -2 12 -4 2 -4 -23z"/>
<path d="M1043 303 c-13 -2 -23 -11 -23 -18 0 -17 17 -28 24 -16 4 5 0 12 -6
14 -8 4 -7 6 4 6 11 1 18 -9 21 -26 3 -23 4 -21 6 10 0 20 0 36 -1 36 -2 -1
-13 -4 -25 -6z"/>
<path d="M1290 276 c0 -20 2 -36 4 -36 8 0 12 61 4 66 -4 3 -8 -11 -8 -30z"/>
<path d="M1320 300 c0 -5 5 -10 11 -10 5 0 7 5 4 10 -3 6 -8 10 -11 10 -2 0
-4 -4 -4 -10z"/>
<path d="M126 285 c4 -8 10 -13 14 -10 4 3 10 -4 13 -15 8 -31 27 -24 27 10 0
27 -3 30 -30 30 -22 0 -28 -4 -24 -15z"/>
<path d="M236 273 c4 -23 28 -52 44 -53 3 0 4 18 2 40 -4 34 -8 40 -27 40 -20
0 -23 -4 -19 -27z"/>
<path d="M300 263 c0 -20 3 -34 6 -30 9 9 11 67 2 67 -4 0 -8 -16 -8 -37z"/>
<path d="M381 291 c-19 -12 3 -51 29 -51 16 0 20 7 20 30 0 31 -19 40 -49 21z
m29 -31 c0 -5 -2 -10 -4 -10 -3 0 -8 5 -11 10 -3 6 -1 10 4 10 6 0 11 -4 11
-10z"/>
<path d="M660 285 c6 -8 9 -19 6 -24 -4 -5 -2 -12 4 -16 6 -4 10 6 10 24 0 22
-5 31 -16 31 -13 0 -14 -3 -4 -15z"/>
<path d="M740 290 c0 -5 4 -10 9 -10 6 0 13 5 16 10 3 6 -1 10 -9 10 -9 0 -16
-4 -16 -10z"/>
<path d="M844 275 c3 -26 16 -48 16 -26 0 7 5 9 10 6 6 -4 10 5 10 19 0 19 -5
26 -19 26 -15 0 -19 -6 -17 -25z"/>
<path d="M904 285 c10 -8 22 -12 27 -10 4 3 10 -7 12 -22 3 -23 4 -21 6 10 1
36 0 37 -31 37 -31 -1 -32 -2 -14 -15z"/>
<path d="M965 265 c0 -19 3 -35 8 -35 4 0 7 16 7 35 0 19 -3 35 -7 35 -5 0 -8
-16 -8 -35z"/>
<path d="M1127 289 c6 -6 9 -17 7 -24 -3 -7 4 -15 15 -18 18 -4 21 -1 20 26 0
27 -2 29 -9 12 -7 -17 -9 -17 -9 -2 -1 9 -9 17 -18 17 -13 0 -14 -3 -6 -11z"/>
<path d="M1197 278 c-8 -27 -1 -38 24 -38 14 0 19 7 19 30 0 23 -5 30 -19 30
-11 0 -21 -9 -24 -22z"/>
<path d="M1260 280 c0 -11 4 -20 9 -20 6 0 9 9 8 20 -1 11 -5 20 -9 20 -4 0
-8 -9 -8 -20z"/>
<path d="M1350 281 c0 -25 18 -37 26 -17 3 9 10 14 14 11 4 -3 10 2 14 10 4
11 -2 15 -24 15 -23 0 -30 -5 -30 -19z"/>
<path d="M1430 290 c13 -9 13 -11 0 -20 -13 -8 -12 -10 3 -10 10 0 17 8 17 20
0 12 -7 20 -17 20 -15 0 -16 -2 -3 -10z"/>
<path d="M1460 270 c0 -16 2 -30 4 -30 2 0 6 14 8 30 3 17 1 30 -4 30 -4 0 -8
-13 -8 -30z"/>
<path d="M1990 281 c29 -17 156 -32 248 -29 91 3 92 3 60 18 -37 16 -334 27
-308 11z"/>
<path d="M2426 274 c-22 -8 -41 -16 -43 -18 -2 -2 56 -2 129 -1 88 2 148 7
178 18 45 15 44 15 -90 15 -93 1 -147 -4 -174 -14z"/>
<path d="M202 255 c0 -16 2 -22 5 -12 2 9 2 23 0 30 -3 6 -5 -1 -5 -18z"/>
<path d="M640 270 c0 -5 5 -10 10 -10 6 0 10 5 10 10 0 6 -4 10 -10 10 -5 0
-10 -4 -10 -10z"/>
<path d="M724 264 c3 -9 6 -18 6 -20 0 -2 7 -4 15 -4 8 0 15 8 15 18 0 14 -2
15 -10 2 -8 -13 -10 -12 -10 3 0 9 -5 17 -11 17 -6 0 -8 -7 -5 -16z"/>
<path d="M820 270 c0 -5 5 -10 10 -10 6 0 10 5 10 10 0 6 -4 10 -10 10 -5 0
-10 -4 -10 -10z"/>
<path d="M890 271 c0 -5 7 -11 15 -15 8 -3 15 -1 15 3 0 5 -7 11 -15 15 -8 3
-15 1 -15 -3z"/>
<path d="M2325 236 c-11 -8 -40 -26 -63 -41 -24 -14 -42 -29 -39 -31 3 -3 30
11 60 30 31 20 64 36 74 36 10 0 44 -16 77 -35 32 -20 60 -34 62 -32 4 4 -133
87 -144 86 -4 0 -16 -6 -27 -13z"/>
</g>
</svg>
